<svg width="7" height="11" viewBox='0 0 7 11'  xmlns="http://www.w3.org/2000/svg">
  <path transform="rotate(-180 3.500002145767212,5.500002384185791) " id="svg_1" d="m6.555,5.07l-4.895,-4.893a0.597,0.597 0 0 0 -0.425,-0.177a0.597,0.597 0 0 0 -0.426,0.176l-0.36,0.36a0.603,0.603 0 0 0 0,0.851l4.11,4.11l-4.115,4.117a0.598,0.598 0 0 0 -0.175,0.425c0,0.162 0.062,0.313 0.175,0.426l0.36,0.36a0.597,0.597 0 0 0 0.426,0.175a0.597,0.597 0 0 0 0.426,-0.176l4.9,-4.9a0.598,0.598 0 0 0 0.175,-0.426a0.598,0.598 0 0 0 -0.176,-0.427l0,-0.001z"/>
</svg>
